<svg width="68" height="60" viewBox="0 0 68 60" fill="none" xmlns="http://www.w3.org/2000/svg">
<g filter="url(#filter0_d_37_939)">
<mask id="mask0_37_939" style="mask-type:luminance" maskUnits="userSpaceOnUse" x="4" y="0" width="60" height="52">
<path d="M4 0H63.6576V51.8867H4V0Z" fill="white"/>
</mask>
<g mask="url(#mask0_37_939)">
<path fill-rule="evenodd" clip-rule="evenodd" d="M47.7292 0.550255C42.5 0.00600811 35.8512 2.74711 34.1855 7.31347C32.7054 2.68372 24.7263 -0.308037 19.4792 0.0247048C5.63266 0.903446 0.634903 16.6574 6.28065 27.4331C9.31971 33.2328 13.7517 38.3396 18.6066 42.9431C19.9424 44.2098 21.9762 45.9474 24.1051 47.7087C24.0939 47.7058 24.0821 47.7037 24.0705 47.7005C25.8451 49.1679 27.6828 50.649 29.2374 51.8868C29.5665 49.4419 30.0415 46.4049 29.9532 45.5942C29.7671 43.8791 29.0209 42.2995 27.7749 41.1123C26.5034 39.9005 25.1362 38.8602 24.0497 37.4533C23.5746 36.8381 23.1965 36.1577 22.752 35.5205C22.3041 34.8796 21.8246 34.2614 21.3305 33.6567C20.3191 32.4181 19.2488 31.2297 18.1737 30.048C17.2595 29.0439 16.2865 28.0638 15.474 26.9712C14.9256 26.2336 14.2929 25.1468 15.0509 24.3271C15.5932 23.7405 16.3177 23.3932 17.0679 23.7274C17.9326 24.1121 18.6548 24.8582 19.304 25.5313C20.124 26.382 20.8825 27.2914 21.6428 28.1967C22.1164 28.7605 22.5956 29.4988 23.2219 29.9022C24.321 30.6098 26.2336 30.6401 27.1243 29.573C27.8104 28.7509 27.714 27.5517 27.4839 26.5745C27.1459 25.1363 26.6622 23.7367 26.3395 22.2909C25.7221 19.5244 25.2525 16.6805 25.1298 13.8433C25.0955 13.0446 25.0412 12.1725 25.245 11.3905C25.3731 10.8977 25.7501 10.6645 26.1966 10.4714C28.0456 9.67187 28.6697 12.1092 28.8469 13.4638C29.0761 15.2148 29.2207 16.9282 29.7824 18.6159C30.1322 19.6664 30.5946 20.766 31.3433 21.5948C31.5197 21.7899 31.9033 22.2901 32.058 21.8872C32.2718 21.3289 32.1985 20.5939 32.2248 20.0067C32.2629 19.166 32.3954 18.3334 32.4217 17.4917C32.4508 16.5481 32.3974 15.6016 32.3411 14.6601C32.2617 13.3385 32.0565 11.8959 32.3772 10.5921C32.5844 9.74695 33.2541 8.92488 34.2066 9.04145C35.0996 9.15041 35.3998 10.2164 35.5098 10.9719C35.5822 11.4685 35.5932 11.9751 35.5762 12.4761C35.5551 13.0843 35.5404 13.6732 35.5473 14.2829C35.5721 16.4561 35.5825 18.7237 36.0729 20.8501C36.1448 21.1618 36.2262 21.6614 36.4611 21.9012C36.7503 22.1966 36.9706 21.7169 37.0678 21.4668C37.5285 20.2895 37.5496 18.8841 37.6056 17.6346C37.6567 16.485 37.704 15.3434 37.5894 14.1976C37.4887 13.1912 37.4471 11.8363 38.1306 11.0093C38.6366 10.3967 39.5273 10.3385 40.0564 10.9371C40.6285 11.5848 40.75 12.6096 40.8285 13.4363C41.0303 15.5666 40.8903 17.8105 40.6028 19.9264C40.4645 20.9427 40.3531 21.971 40.3497 22.9976C40.3482 23.385 40.2685 25.0811 41.0095 24.6496C41.88 24.1425 42.2255 22.9392 42.4359 22.0195C42.6908 20.9077 42.795 19.7683 42.9696 18.6425C43.0911 17.8598 43.2046 16.8832 43.7241 16.249C44.0399 15.8637 44.7199 15.6002 45.2086 15.7646C45.7425 15.9443 45.8502 16.5984 45.8918 17.0892C45.9914 18.2636 45.8825 19.4657 45.8421 20.6404C45.7492 23.3417 45.5223 25.9803 45.0668 28.6475C44.5958 31.407 43.9966 34.1563 43.1979 36.8389C42.8798 37.9067 42.5317 38.9721 42.0832 39.9925C41.6211 41.0439 40.9053 41.9525 40.4686 43.0156C40.3263 43.3614 40.175 43.7555 40.1909 44.1376C40.2099 44.608 40.3996 45.095 40.4593 45.5726C40.4781 45.7248 40.4954 45.8773 40.5133 46.0298C40.5783 46.5776 40.8054 47.9941 41.0129 49.3064C43.7613 47.2433 46.5934 45.0506 48.3181 43.5426C53.3542 39.1392 57.9883 34.2153 61.258 28.5429C67.3335 18.0036 61.529 1.98697 47.7292 0.550255Z" fill="#D32F2F"/>
</g>
<path fill-rule="evenodd" clip-rule="evenodd" d="M36.795 40.0759C36.6483 40.0753 36.5018 40.075 36.3551 40.0745L36.3667 36.6416C36.3687 36.0674 36.3707 35.4931 36.3727 34.9192C36.3735 34.7278 36.2124 34.5645 36.0215 34.564C35.0489 34.5605 34.0763 34.5571 33.104 34.5537C32.9134 34.5531 32.7508 34.715 32.7505 34.9067C32.7449 36.4781 32.7395 38.0492 32.7344 39.6206L32.7327 40.0622L29.3142 40.0506C28.7423 40.0486 28.1708 40.0466 27.5987 40.0446C27.4081 40.0438 27.2458 40.2053 27.2452 40.3973C27.2418 41.374 27.2387 42.3504 27.2353 43.327C27.2347 43.4354 27.275 43.5179 27.3353 43.575C27.3922 43.639 27.4755 43.6817 27.5865 43.682C29.1513 43.6877 30.7159 43.6928 32.2807 43.6982C32.4274 43.6988 32.5735 43.6993 32.7205 43.6999C32.7163 44.8441 32.7126 45.9883 32.7086 47.1328C32.7066 47.7067 32.7047 48.281 32.703 48.8555C32.7024 49.0463 32.8633 49.2099 33.0542 49.2104L35.9716 49.2204C36.0796 49.2207 36.1617 49.1806 36.2186 49.1194C36.2823 49.0628 36.3248 48.9792 36.3254 48.8674C36.3305 47.2963 36.3359 45.7252 36.3413 44.1535C36.3415 44.0065 36.3421 43.8592 36.3427 43.7121C37.4824 43.7161 38.6218 43.7201 39.7612 43.7241C40.3333 43.7258 40.9051 43.7278 41.4767 43.7298C41.6673 43.7303 41.8296 43.5688 41.8304 43.3771C41.8338 42.4004 41.8372 41.424 41.8403 40.4473C41.8409 40.2559 41.68 40.093 41.4891 40.0921C39.9243 40.0867 38.3595 40.0816 36.795 40.0759Z" fill="#008080"/>
</g>
<defs>
<filter id="filter0_d_37_939" x="0" y="0" width="67.6576" height="59.8867" filterUnits="userSpaceOnUse" color-interpolation-filters="sRGB">
<feFlood flood-opacity="0" result="BackgroundImageFix"/>
<feColorMatrix in="SourceAlpha" type="matrix" values="0 0 0 0 0 0 0 0 0 0 0 0 0 0 0 0 0 0 127 0" result="hardAlpha"/>
<feOffset dy="4"/>
<feGaussianBlur stdDeviation="2"/>
<feComposite in2="hardAlpha" operator="out"/>
<feColorMatrix type="matrix" values="0 0 0 0 0 0 0 0 0 0 0 0 0 0 0 0 0 0 0.25 0"/>
<feBlend mode="normal" in2="BackgroundImageFix" result="effect1_dropShadow_37_939"/>
<feBlend mode="normal" in="SourceGraphic" in2="effect1_dropShadow_37_939" result="shape"/>
</filter>
</defs>
</svg>
