<svg width="79" height="13" viewBox="0 0 79 13" fill="none" xmlns="http://www.w3.org/2000/svg">
<path fill-rule="evenodd" clip-rule="evenodd" d="M0 1.05078V12.3841H6.63866V10.3848H2.27905V1.05078H0Z" fill="#008080"/>
<mask id="mask0_1_4695" style="mask-type:luminance" maskUnits="userSpaceOnUse" x="8" y="0" width="71" height="12">
<path d="M8.65088 0H78.9463V11.7173H8.65088V0Z" fill="white"/>
</mask>
<g mask="url(#mask0_1_4695)">
<path fill-rule="evenodd" clip-rule="evenodd" d="M8.74856 11.5702H11.0424V3.3361H8.74856V11.5702ZM9.89933 0.110503C10.7315 0.110503 11.1478 0.475989 11.1478 1.2073C11.1478 1.55633 11.0438 1.82753 10.8355 2.02159C10.6275 2.2153 10.3156 2.31233 9.89933 2.31233C9.0668 2.31233 8.65088 1.9441 8.65088 1.2073C8.65088 0.475989 9.0668 0.110503 9.89933 0.110503ZM12.5542 5.00091V3.93223L13.8177 3.33634V2.72674C13.8177 1.78046 14.0533 1.0896 14.5245 0.653486C14.9961 0.217714 15.7506 0 16.7883 0C17.5802 0 18.285 0.117257 18.9018 0.351429L18.3151 2.02491C17.854 1.88297 17.4276 1.81131 17.0365 1.81131C16.7106 1.81131 16.4749 1.90594 16.3297 2.0952C16.184 2.28411 16.1115 2.52583 16.1115 2.82069V3.33634H18.0969V5.00091H16.1115V11.5701H13.8177V5.00091H12.5542ZM21.2858 6.51765H24.4969C24.4871 5.98382 24.3393 5.57205 24.054 5.28165C23.769 4.9909 23.3839 4.84622 22.8987 4.84622C22.4135 4.84622 22.0336 4.9909 21.7584 5.28165C21.4829 5.57205 21.3253 5.98382 21.2858 6.51765ZM19.9593 4.3117C20.6644 3.55845 21.639 3.18165 22.8836 3.18165C24.116 3.18165 25.0749 3.51285 25.7614 4.17593C26.4476 4.83902 26.7907 5.7541 26.7907 6.9229V8.01285H21.2333C21.2578 8.65365 21.4507 9.15387 21.8106 9.51353C22.1708 9.87319 22.6764 10.0535 23.3265 10.0535C23.852 10.0535 24.3491 10.0011 24.8176 9.89787C25.286 9.79433 25.7751 9.62942 26.2852 9.40245V11.1383C25.8696 11.3338 25.425 11.4791 24.9524 11.5748C24.479 11.6698 23.9024 11.7174 23.2211 11.7174C21.8666 11.7174 20.8083 11.3519 20.0454 10.6199C19.2825 9.88862 18.9013 8.85285 18.9013 7.51193C18.9013 6.13262 19.2542 5.06599 19.9593 4.3117Z" fill="#008080"/>
</g>
<mask id="mask1_1_4695" style="mask-type:luminance" maskUnits="userSpaceOnUse" x="8" y="0" width="71" height="12">
<path d="M8.65088 0H78.9463V11.7173H8.65088V0Z" fill="white"/>
</mask>
<g mask="url(#mask1_1_4695)">
<path fill-rule="evenodd" clip-rule="evenodd" d="M28.0297 7.52699C28.7715 7.8503 29.3996 9.48676 29.9135 9.61876C30.4275 9.75144 30.897 9.81762 31.323 9.81762C31.8328 9.81762 32.2238 9.72196 32.4966 9.53099C32.7686 9.33967 32.9051 9.05579 32.9051 8.67864C32.9051 8.46779 32.8449 8.28024 32.7252 8.11602C32.6051 7.95213 32.4286 7.79407 32.1965 7.64219C31.9641 7.48996 31.4904 7.24756 30.7758 6.91464C30.1015 6.60607 29.5957 6.3095 29.2575 6.02562C28.9193 5.74173 28.6493 5.41087 28.4473 5.03373C28.2453 4.65624 28.1445 4.21533 28.1445 3.71064C28.1445 2.75819 28.475 2.00973 29.1363 1.46527C29.7973 0.92013 30.7111 0.647558 31.8779 0.647558C32.4504 0.647558 32.9962 0.714073 33.5157 0.846415C34.0352 0.979101 35.9174 -0.129699 36.4845 0.110644L35.6061 4.34082C35.019 4.10493 33.3189 2.78116 32.9356 2.6879C32.5515 2.59499 32.1741 2.54802 31.8027 2.54802C31.3629 2.54802 31.0258 2.64847 30.7909 2.85007C30.5556 3.05099 30.4383 3.31362 30.4383 3.63693C30.4383 3.83784 30.486 4.01339 30.5808 4.16253C30.6757 4.31202 30.8269 4.4567 31.0342 4.5959C31.2418 4.73579 31.7327 4.98676 32.5078 5.34916C33.5371 5.82916 34.2429 6.31087 34.6255 6.79362C35.0078 7.27567 35.199 7.86779 35.199 8.56824C35.199 9.54367 34.8415 10.3134 34.1266 10.875C33.4117 11.4369 32.4171 11.7174 31.1434 11.7174C29.9699 11.7174 28.9319 11.5 28.0297 11.0646V7.52699Z" fill="#D32F2F"/>
</g>
<mask id="mask2_1_4695" style="mask-type:luminance" maskUnits="userSpaceOnUse" x="8" y="0" width="71" height="12">
<path d="M8.65088 0H78.9463V11.7173H8.65088V0Z" fill="white"/>
</mask>
<g mask="url(#mask2_1_4695)">
<path fill-rule="evenodd" clip-rule="evenodd" d="M39.2271 9.28072C39.5008 9.69798 39.9469 9.90609 40.5648 9.90609C41.1778 9.90609 41.6186 9.69867 41.8875 9.28484C42.1563 8.87032 42.2908 8.25352 42.2908 7.43512C42.2908 6.62084 42.1549 6.01089 41.884 5.60358C41.6123 5.19661 41.1677 4.99364 40.5497 4.99364C39.9367 4.99364 39.4945 5.19592 39.2232 5.60015C38.9519 6.00472 38.8164 6.61604 38.8164 7.43512C38.8164 8.24872 38.9533 8.86415 39.2271 9.28072ZM37.5592 4.29969C38.2755 3.55467 39.2824 3.18164 40.5798 3.18164C41.3847 3.18164 42.0947 3.35307 42.7098 3.69661C43.3246 4.04015 43.7972 4.53284 44.1274 5.17569C44.4568 5.81855 44.6224 6.57112 44.6224 7.43512C44.6224 8.77638 44.2622 9.82587 43.542 10.5826C42.8219 11.3392 41.8195 11.7174 40.5347 11.7174C39.7281 11.7174 39.017 11.5446 38.4008 11.198C37.7847 10.8517 37.3113 10.3542 36.9808 9.70518C36.6503 9.05649 36.4847 8.29947 36.4847 7.43512C36.4847 6.09044 36.8429 5.04575 37.5592 4.29969ZM46.4874 3.3363H48.7813V8.12944C48.7813 8.72156 48.8888 9.16556 49.1048 9.46144C49.3201 9.75801 49.6635 9.90613 50.1348 9.90613C50.7765 9.90613 51.2404 9.69664 51.5264 9.27801C51.8117 8.86007 51.9546 8.16647 51.9546 7.19756V3.3363H54.2488V11.57H52.4888L52.1804 10.5027H52.0599C51.8145 10.8905 51.4662 11.1898 51.0149 11.4006C50.5636 11.6118 50.0497 11.7174 49.4727 11.7174C48.4851 11.7174 47.7408 11.4589 47.2391 10.9409C46.7381 10.4225 46.4874 9.67778 46.4874 8.70544V3.3363ZM56.6553 11.5702V3.33609H58.3925L58.7311 4.57895H58.8438C59.1043 4.15998 59.4565 3.82227 59.9004 3.56581C60.344 3.30935 60.8264 3.18147 61.3481 3.18147C61.6589 3.18147 61.917 3.20169 62.1225 3.24112L61.9495 5.15564C61.7643 5.10592 61.5385 5.08192 61.2728 5.08192C60.5407 5.08192 59.9704 5.27152 59.5619 5.65175C59.1533 6.03164 58.9492 6.56306 58.9492 7.24706V11.5702H56.6553ZM64.2023 4.29123C64.9119 3.55134 65.931 3.1814 67.259 3.1814C68.2319 3.1814 69.1043 3.36825 69.8763 3.74128L69.1992 5.47991C68.8386 5.33763 68.5025 5.22071 68.192 5.12951C67.8807 5.039 67.5699 4.99374 67.259 4.99374C66.0658 4.99374 65.4693 5.82448 65.4693 7.48665C65.4693 9.09911 66.0658 9.9062 67.259 9.9062C67.7001 9.9062 68.109 9.84791 68.485 9.73271C68.8614 9.61682 69.237 9.43614 69.613 9.19031V11.1086C69.2423 11.3383 68.8673 11.4977 68.4889 11.5855C68.1101 11.6733 67.6325 11.7175 67.0559 11.7175C64.4438 11.7175 63.138 10.3118 63.138 7.5014C63.138 6.10048 63.4926 5.03043 64.2023 4.29123ZM73.4413 6.5177H76.6527C76.6426 5.98388 76.4948 5.57211 76.2095 5.28171C75.9249 4.99096 75.5394 4.84628 75.0542 4.84628C74.5693 4.84628 74.1891 4.99096 73.9139 5.28171C73.6387 5.57211 73.4812 5.98388 73.4413 6.5177ZM72.1147 4.31176C72.8198 3.55851 73.7949 3.18171 75.0391 3.18171C76.2714 3.18171 77.2307 3.51291 77.9169 4.17599C78.6031 4.83908 78.9465 5.75416 78.9465 6.92296V8.01291H73.3887C73.4136 8.65371 73.6061 9.15393 73.966 9.51359C74.3263 9.87325 74.8318 10.0536 75.482 10.0536C76.0078 10.0536 76.505 10.0011 76.9734 9.89793C77.4418 9.79439 77.9309 9.62948 78.441 9.4025V11.1384C78.0251 11.3338 77.5805 11.4792 77.1078 11.5748C76.6348 11.6698 76.0579 11.7175 75.3769 11.7175C74.0221 11.7175 72.9637 11.352 72.2009 10.62C71.4383 9.88868 71.0571 8.8529 71.0571 7.51199C71.0571 6.13268 71.4096 5.06605 72.1147 4.31176Z" fill="#008080"/>
</g>
</svg>
